# xmcd
#
# Track frame offsets:
# 150
# 12778
# 29091
# 55139
# 71386
# 91851
# 107541
# 116793
# 145226
# 165301
# 183540
# 203164
# 232075
# 249125
# 266788
# 284171
# 307896
#
# Disc length: 4455 seconds
#
#
# Revision: 0
# Processed by: cddbd v1.4PL0 Copyright (c) Steve Scherf et al.
# Submitted via: FreeRIP 2.11 
#
DISCID=ee116511
DTITLE=SEXY 3
DYEAR=1900
DGENRE=Acoustic
TTITLE0=CHRISTINE
TTITLE1=ALLO FEAT. MISS BEATRICE
TTITLE2=CIRCLES and CIGARETTES
TTITLE3=SUNSET BOULEVARD-FEAT.KATJA KEAN
TTITLE4=A MAN AND A WOMAN
TTITLE5=ANONIMO VEZIANO
TTITLE6=PIN STRIPES MACHINE GUN
TTITLE7=SUMMER TIME
TTITLE8=LIFE IN MONO
TTITLE9=SERRANO ANTHEM(AMOR/AMOR)
TTITLE10=DO YOU L0VE ME TOO
TTITLE11=HE DID IT
TTITLE12=DANCE NAKED UNDER PALMTREES
TTITLE13=SMOOTH TRUMTATION
TTITLE14=FLYIN AWAY
TTITLE15=EVERYTIME
TTITLE16=NEW YORK IS IN CHINA
EXTD=
EXTT0=
EXTT1=
EXTT2=
EXTT3=
EXTT4=
EXTT5=
EXTT6=
EXTT7=
EXTT8=
EXTT9=
EXTT10=
EXTT11=
EXTT12=
EXTT13=
EXTT14=
EXTT15=
EXTT16=
PLAYORDER=
